<svg xmlns="http://www.w3.org/2000/svg" width="662" height="438" style="
        width:662px;
        height:438px;
        background: #FFF;
        fill: none;
">
        
        
        <svg xmlns="http://www.w3.org/2000/svg" class="role-diagram-draw-area"><g class="shapes-region" style="stroke: black; fill: none;"><g class="composite-shape axis2d" style="stroke-width: 1px; stroke: rgb(0, 0, 0);"><path class="real" d=" M24.5,399.2 L587.5,399.2 M80.8,50 L80.8,438"/><path d=" M580.5,394.2 L587.5,399.2 L580.5,404.2"/><path d=" M75.8,57 L80.8,50 L85.8,57"/><path d=" M120.8,394.2 L120.8,404.2 M160.8,394.2 L160.8,404.2 M200.8,394.2 L200.8,404.2 M240.8,394.2 L240.8,404.2 M280.8,394.2 L280.8,404.2 M320.8,394.2 L320.8,404.2 M360.8,394.2 L360.8,404.2 M400.8,394.2 L400.8,404.2 M440.8,394.2 L440.8,404.2 M480.8,394.2 L480.8,404.2 M520.8,394.2 L520.8,404.2 M560.8,394.2 L560.8,404.2 M40.8,394.2 L40.8,404.2 M75.8,359.2 L85.8,359.2 M75.8,319.2 L85.8,319.2 M75.8,279.2 L85.8,279.2 M75.8,239.2 L85.8,239.2 M75.8,199.2 L85.8,199.2 M75.8,159.2 L85.8,159.2 M75.8,119.2 L85.8,119.2 M75.8,79.2 L85.8,79.2"/><g style="fill: rgb(0, 0, 0); font-size: 11px; font-weight: normal; text-anchor: end; stroke: none; font-family: Times;"/></g><g class="arrow-line"><path class="connection real" stroke-dasharray="" d="  M80.8,399.2 L405.5,399" style="stroke: rgb(255, 0, 0); stroke-width: 2px; fill: none;"/><g stroke="rgba(255,0,0,1)" fill="rgba(255,0,0,1)" transform="matrix(0.9999997563060741,-0.000698131644088669,0.000698131644088669,0.9999997563060741,405.5,399)" style="stroke: rgb(255, 0, 0); fill: rgb(255, 0, 0); stroke-width: 2px;"><circle cx="0" cy="0" r="4.355"/></g><g stroke="rgba(255,0,0,1)" fill="rgba(255,0,0,1)" transform="matrix(0.9999997563060741,-0.000698131644088669,0.000698131644088669,0.9999997563060741,80.8,399.2)" style="stroke: rgb(255, 0, 0); fill: rgb(255, 0, 0); stroke-width: 2px;"><circle cx="0" cy="0" r="4.355"/></g></g><g class="arrow-line"><path class="connection real" stroke-dasharray="" d="  M81.8,360.2 L307.5,360" style="stroke: rgb(255, 0, 0); stroke-width: 2px; fill: none;"/><g stroke="rgba(255,0,0,1)" fill="rgba(255,0,0,1)" transform="matrix(0.9999996192282494,-0.0008726645152362283,0.0008726645152362283,0.9999996192282494,307.5,360)" style="stroke: rgb(255, 0, 0); fill: rgb(255, 0, 0); stroke-width: 2px;"><circle cx="0" cy="0" r="4.355"/></g><g stroke="rgba(255,0,0,1)" fill="rgba(255,0,0,1)" transform="matrix(0.9999996192282494,-0.0008726645152362283,0.0008726645152362283,0.9999996192282494,81.8,360.2)" style="stroke: rgb(255, 0, 0); fill: rgb(255, 0, 0); stroke-width: 2px;"><circle cx="0" cy="0" r="4.355"/></g></g><g class="arrow-line"><path class="connection real" stroke-dasharray="" d="  M81.8,319.2 L319.5,319.03 L364.5,319" style="stroke: rgb(255, 0, 0); stroke-width: 2px; fill: none;"/><g stroke="rgba(255,0,0,1)" fill="rgba(255,0,0,1)" transform="matrix(0.9999997563060741,-0.000698131644088669,0.000698131644088669,0.9999997563060741,364.5,319)" style="stroke: rgb(255, 0, 0); fill: rgb(255, 0, 0); stroke-width: 2px;"><circle cx="0" cy="0" r="4.355"/></g><g stroke="rgba(255,0,0,1)" fill="rgba(255,0,0,1)" transform="matrix(0.9999997563060741,-0.000698131644088669,0.000698131644088669,0.9999997563060741,81.8,319.2)" style="stroke: rgb(255, 0, 0); fill: rgb(255, 0, 0); stroke-width: 2px;"><circle cx="0" cy="0" r="4.355"/></g></g><g class="arrow-line"><path class="connection real" stroke-dasharray="" d="  M79.8,240.2 L273.5,240" style="stroke: rgb(255, 0, 0); stroke-width: 2px; fill: none;"/><g stroke="rgba(255,0,0,1)" fill="rgba(255,0,0,1)" transform="matrix(0.9999994516886945,-0.0010471973598000183,0.0010471973598000183,0.9999994516886945,273.5,240)" style="stroke: rgb(255, 0, 0); fill: rgb(255, 0, 0); stroke-width: 2px;"><circle cx="0" cy="0" r="4.355"/></g><g stroke="rgba(255,0,0,1)" fill="rgba(255,0,0,1)" transform="matrix(0.9999994516886945,-0.0010471973598000183,0.0010471973598000183,0.9999994516886945,79.8,240.2)" style="stroke: rgb(255, 0, 0); fill: rgb(255, 0, 0); stroke-width: 2px;"><circle cx="0" cy="0" r="4.355"/></g></g><g class="arrow-line"><path class="connection real" stroke-dasharray="" d="  M81.8,279.2 L234.5,279" style="stroke: rgb(255, 0, 0); stroke-width: 2px; fill: none;"/><g stroke="rgba(255,0,0,1)" fill="rgba(255,0,0,1)" transform="matrix(0.9999990252244151,-0.001396262947913546,0.001396262947913546,0.9999990252244151,234.5,279)" style="stroke: rgb(255, 0, 0); fill: rgb(255, 0, 0); stroke-width: 2px;"><circle cx="0" cy="0" r="4.355"/></g><g stroke="rgba(255,0,0,1)" fill="rgba(255,0,0,1)" transform="matrix(0.9999990252244151,-0.001396262947913546,0.001396262947913546,0.9999990252244151,81.8,279.2)" style="stroke: rgb(255, 0, 0); fill: rgb(255, 0, 0); stroke-width: 2px;"><circle cx="0" cy="0" r="4.355"/></g></g><g class="arrow-line"><path class="connection real" stroke-dasharray="" d="  M81.8,200.2 L158.5,200" style="stroke: rgb(255, 0, 0); stroke-width: 2px; fill: none;"/><g stroke="rgba(255,0,0,1)" fill="rgba(255,0,0,1)" transform="matrix(0.9999965730559848,-0.0026179908874171876,0.0026179908874171876,0.9999965730559848,158.5,200)" style="stroke: rgb(255, 0, 0); fill: rgb(255, 0, 0); stroke-width: 2px;"><circle cx="0" cy="0" r="4.355"/></g><g stroke="rgba(255,0,0,1)" fill="rgba(255,0,0,1)" transform="matrix(0.9999965730559848,-0.0026179908874171876,0.0026179908874171876,0.9999965730559848,81.8,200.2)" style="stroke: rgb(255, 0, 0); fill: rgb(255, 0, 0); stroke-width: 2px;"><circle cx="0" cy="0" r="4.355"/></g></g><g class="arrow-line"><path class="connection real" stroke-dasharray="" d="  M81.8,161.2 L476.5,161" style="stroke: rgb(255, 0, 0); stroke-width: 2px; fill: none;"/><g stroke="rgba(255,0,0,1)" fill="rgba(255,0,0,1)" transform="matrix(0.9999998629221643,-0.0005235987516739153,0.0005235987516739153,0.9999998629221643,476.5,161)" style="stroke: rgb(255, 0, 0); fill: rgb(255, 0, 0); stroke-width: 2px;"><circle cx="0" cy="0" r="4.355"/></g><g stroke="rgba(255,0,0,1)" fill="rgba(255,0,0,1)" transform="matrix(0.9999998629221643,-0.0005235987516739153,0.0005235987516739153,0.9999998629221643,81.8,161.2)" style="stroke: rgb(255, 0, 0); fill: rgb(255, 0, 0); stroke-width: 2px;"><circle cx="0" cy="0" r="4.355"/></g></g><g class="arrow-line"><path class="connection real" stroke-dasharray="" d="  M80.8,121.2 L259.5,121" style="stroke: rgb(255, 0, 0); stroke-width: 2px; fill: none;"/><g stroke="rgba(255,0,0,1)" fill="rgba(255,0,0,1)" transform="matrix(0.9999994516886945,-0.0010471973598000183,0.0010471973598000183,0.9999994516886945,259.5,121)" style="stroke: rgb(255, 0, 0); fill: rgb(255, 0, 0); stroke-width: 2px;"><circle cx="0" cy="0" r="4.355"/></g><g stroke="rgba(255,0,0,1)" fill="rgba(255,0,0,1)" transform="matrix(0.9999994516886945,-0.0010471973598000183,0.0010471973598000183,0.9999994516886945,80.8,121.19999999999999)" style="stroke: rgb(255, 0, 0); fill: rgb(255, 0, 0); stroke-width: 2px;"><circle cx="0" cy="0" r="4.355"/></g></g><g/></g><g/><g/><g/></svg>
        <svg xmlns="http://www.w3.org/2000/svg" width="660" height="436" style="width:660px;height:436px;font-family:Asana-Math, Asana;background:#FFF;"><g><g><g><g style="transform:matrix(1,0,0,1,25.29998779296875,366);"><path d="M23 661L79 661C97 661 104 650 104 620L104 102C104 39 101 32 67 30L21 27L21 -3C121 0 121 0 146 0C171 0 171 0 271 -3L271 27L225 30C191 32 188 39 188 102L188 718L179 726C135 709 102 701 23 689ZM569 469C423 469 322 366 322 217C322 76 411 -20 540 -20C694 -20 804 87 804 237C804 372 706 469 569 469ZM551 436C643 436 711 336 711 200C711 85 660 13 579 13C481 13 415 109 415 251C415 371 463 436 551 436ZM890 289C890 215 936 164 1010 156L931 95C921 80 916 67 916 52C916 24 934 8 982 -6L895 -53C881 -61 867 -98 867 -129C867 -220 956 -283 1083 -283C1234 -283 1353 -188 1353 -66C1353 6 1305 56 1235 56L1075 56C1023 56 999 68 999 95C999 118 1028 135 1045 152C1055 151 1061 150 1069 150C1130 150 1273 197 1273 324C1273 344 1270 357 1262 378L1354 378L1379 419L1375 431L1233 427C1196 457 1160 469 1111 469C1036 469 890 424 890 289ZM1075 435C1143 435 1189 379 1189 294C1189 229 1147 184 1086 184C1019 184 974 236 974 313C974 390 1011 435 1075 435ZM1122 -14C1235 -14 1274 -37 1274 -102C1274 -188 1195 -252 1090 -252C1003 -252 943 -201 943 -127C943 -82 969 -41 1009 -24C1025 -16 1053 -14 1122 -14Z" stroke="rgb(0, 0, 0)" stroke-width="8" fill="rgb(0, 0, 0)" style="transform:matrix(0.017,0,0,-0.017,0,0);"></path></g></g><g style="transform:matrix(1,0,0,1,51.70001220703125,366);"><path d="M209 656L209 648C211 643 213 639 218 637C235 642 266 653 282 653C334 653 343 500 347 460C219 320 120 161 25 -2L35 -16C60 -5 85 4 111 13C154 159 261 308 353 428C361 365 384 13 401 -6C456 -42 528 44 570 74L570 87L558 87L558 88C541 77 512 55 491 55C452 55 444 188 439 219C424 326 399 672 383 689C347 728 251 667 209 656Z" stroke="rgb(0, 0, 0)" stroke-width="8" fill="rgb(0, 0, 0)" style="transform:matrix(0.017,0,0,-0.017,0,0);"></path></g></g></g><g><g><g><g style="transform:matrix(1,0,0,1,55.5,24.4);"><path d="M23 661L79 661C97 661 104 650 104 620L104 102C104 39 101 32 67 30L21 27L21 -3C121 0 121 0 146 0C171 0 171 0 271 -3L271 27L225 30C191 32 188 39 188 102L188 718L179 726C135 709 102 701 23 689ZM569 469C423 469 322 366 322 217C322 76 411 -20 540 -20C694 -20 804 87 804 237C804 372 706 469 569 469ZM551 436C643 436 711 336 711 200C711 85 660 13 579 13C481 13 415 109 415 251C415 371 463 436 551 436ZM890 289C890 215 936 164 1010 156L931 95C921 80 916 67 916 52C916 24 934 8 982 -6L895 -53C881 -61 867 -98 867 -129C867 -220 956 -283 1083 -283C1234 -283 1353 -188 1353 -66C1353 6 1305 56 1235 56L1075 56C1023 56 999 68 999 95C999 118 1028 135 1045 152C1055 151 1061 150 1069 150C1130 150 1273 197 1273 324C1273 344 1270 357 1262 378L1354 378L1379 419L1375 431L1233 427C1196 457 1160 469 1111 469C1036 469 890 424 890 289ZM1075 435C1143 435 1189 379 1189 294C1189 229 1147 184 1086 184C1019 184 974 236 974 313C974 390 1011 435 1075 435ZM1122 -14C1235 -14 1274 -37 1274 -102C1274 -188 1195 -252 1090 -252C1003 -252 943 -201 943 -127C943 -82 969 -41 1009 -24C1025 -16 1053 -14 1122 -14Z" stroke="rgb(0, 0, 0)" stroke-width="8" fill="rgb(0, 0, 0)" style="transform:matrix(0.020399999999999998,0,0,-0.020399999999999998,0,0);"></path></g></g><g style="transform:matrix(1,0,0,1,83.5,24.16666259765625);"><path d="M146 266C146 526 243 632 301 700L282 726C225 675 60 542 60 266C60 159 85 58 133 -32C168 -99 200 -138 282 -215L301 -194C255 -137 146 -15 146 266Z" stroke="rgb(0, 0, 0)" stroke-width="8" fill="rgb(0, 0, 0)" style="transform:matrix(0.020399999999999998,0,0,-0.020399999999999998,0,0);"></path></g><g style="transform:matrix(1,0,0,1,90.5,24.4);"><path d="M385 458C342 475 313 482 284 482C209 482 121 394 103 374C63 327 24 181 24 78C24 19 36 -11 60 -11C82 -11 101 -3 133 19C180 51 259 121 308 209L232 -205C227 -229 217 -249 205 -262L214 -276C245 -268 276 -262 300 -259C304 -205 310 -150 319 -100L405 356C416 417 422 443 432 474L418 480ZM118 59C104 59 96 80 96 113C96 209 139 359 181 409C193 424 222 433 254 433C282 433 303 427 351 406L330 311C301 174 160 59 118 59Z" stroke="rgb(0, 0, 0)" stroke-width="8" fill="rgb(0, 0, 0)" style="transform:matrix(0.020399999999999998,0,0,-0.020399999999999998,0,0);"></path></g><g style="transform:matrix(1,0,0,1,99.5,24.16666259765625);"><path d="M51 726L32 700C87 636 187 526 187 266C187 -10 83 -131 32 -194L51 -215C104 -165 273 -23 273 265C273 542 108 675 51 726Z" stroke="rgb(0, 0, 0)" stroke-width="8" fill="rgb(0, 0, 0)" style="transform:matrix(0.020399999999999998,0,0,-0.020399999999999998,0,0);"></path></g></g></g><g><g><g style="transform:matrix(1,0,0,1,603,404.4);"><path d="M730 103L704 86C675 67 653 56 643 56C636 56 630 65 630 76C630 86 632 95 637 116L712 413C716 430 719 446 719 454C719 471 709 482 693 482C664 482 626 464 565 421C502 376 467 341 418 272L448 409C452 429 455 444 455 451C455 470 445 482 429 482C399 482 353 460 298 418C254 384 234 363 169 275L202 408C206 424 208 439 208 451C208 470 199 482 185 482C164 482 126 461 52 408L24 388L31 368C68 391 103 414 110 414C121 414 128 404 128 389C128 338 87 145 46 2L49 -9L117 6L139 108C163 219 190 278 245 338C287 384 332 414 360 414C367 414 371 406 371 393C371 358 349 244 308 69L292 2L297 -9L366 6L387 113C403 194 437 269 481 318C536 379 586 414 618 414C626 414 631 405 631 389C631 365 628 351 606 264C566 105 550 84 550 31C550 6 561 -9 580 -9C606 -9 642 12 740 85Z" stroke="rgb(0, 0, 0)" stroke-width="8" fill="rgb(0, 0, 0)" style="transform:matrix(0.020399999999999998,0,0,-0.020399999999999998,0,0);"></path></g></g></g><g><g><g><g style="transform:matrix(1,0,0,1,24.29998779296875,324.79998779296875);"><path d="M23 661L79 661C97 661 104 650 104 620L104 102C104 39 101 32 67 30L21 27L21 -3C121 0 121 0 146 0C171 0 171 0 271 -3L271 27L225 30C191 32 188 39 188 102L188 718L179 726C135 709 102 701 23 689ZM569 469C423 469 322 366 322 217C322 76 411 -20 540 -20C694 -20 804 87 804 237C804 372 706 469 569 469ZM551 436C643 436 711 336 711 200C711 85 660 13 579 13C481 13 415 109 415 251C415 371 463 436 551 436ZM890 289C890 215 936 164 1010 156L931 95C921 80 916 67 916 52C916 24 934 8 982 -6L895 -53C881 -61 867 -98 867 -129C867 -220 956 -283 1083 -283C1234 -283 1353 -188 1353 -66C1353 6 1305 56 1235 56L1075 56C1023 56 999 68 999 95C999 118 1028 135 1045 152C1055 151 1061 150 1069 150C1130 150 1273 197 1273 324C1273 344 1270 357 1262 378L1354 378L1379 419L1375 431L1233 427C1196 457 1160 469 1111 469C1036 469 890 424 890 289ZM1075 435C1143 435 1189 379 1189 294C1189 229 1147 184 1086 184C1019 184 974 236 974 313C974 390 1011 435 1075 435ZM1122 -14C1235 -14 1274 -37 1274 -102C1274 -188 1195 -252 1090 -252C1003 -252 943 -201 943 -127C943 -82 969 -41 1009 -24C1025 -16 1053 -14 1122 -14Z" stroke="rgb(0, 0, 0)" stroke-width="8" fill="rgb(0, 0, 0)" style="transform:matrix(0.017,0,0,-0.017,0,0);"></path></g></g><g style="transform:matrix(1,0,0,1,50.70001220703125,324.79998779296875);"><path d="M209 656L209 648C211 643 213 639 218 637C235 642 266 653 282 653C334 653 343 500 347 460C219 320 120 161 25 -2L35 -16C60 -5 85 4 111 13C154 159 261 308 353 428C361 365 384 13 401 -6C456 -42 528 44 570 74L570 87L558 87L558 88C541 77 512 55 491 55C452 55 444 188 439 219C424 326 399 672 383 689C347 728 251 667 209 656Z" stroke="rgb(0, 0, 0)" stroke-width="8" fill="rgb(0, 0, 0)" style="transform:matrix(0.017,0,0,-0.017,0,0);"></path></g><g><g><g><g style="transform:matrix(1,0,0,1,62.70001220703125,317.9);"><path d="M16 23L16 -3C203 -3 203 0 239 0C275 0 275 -3 468 -3L468 82C353 77 307 81 122 77L304 270C401 373 431 428 431 503C431 618 353 689 226 689C154 689 105 669 56 619L39 483L68 483L81 529C97 587 133 612 200 612C286 612 341 558 341 473C341 398 299 324 186 204Z" stroke="rgb(0, 0, 0)" stroke-width="8" fill="rgb(0, 0, 0)" style="transform:matrix(0.0119,0,0,-0.0119,0,0);"></path></g></g></g></g></g></g><g><g><g><g style="transform:matrix(1,0,0,1,24.29998779296875,284.79998779296875);"><path d="M23 661L79 661C97 661 104 650 104 620L104 102C104 39 101 32 67 30L21 27L21 -3C121 0 121 0 146 0C171 0 171 0 271 -3L271 27L225 30C191 32 188 39 188 102L188 718L179 726C135 709 102 701 23 689ZM569 469C423 469 322 366 322 217C322 76 411 -20 540 -20C694 -20 804 87 804 237C804 372 706 469 569 469ZM551 436C643 436 711 336 711 200C711 85 660 13 579 13C481 13 415 109 415 251C415 371 463 436 551 436ZM890 289C890 215 936 164 1010 156L931 95C921 80 916 67 916 52C916 24 934 8 982 -6L895 -53C881 -61 867 -98 867 -129C867 -220 956 -283 1083 -283C1234 -283 1353 -188 1353 -66C1353 6 1305 56 1235 56L1075 56C1023 56 999 68 999 95C999 118 1028 135 1045 152C1055 151 1061 150 1069 150C1130 150 1273 197 1273 324C1273 344 1270 357 1262 378L1354 378L1379 419L1375 431L1233 427C1196 457 1160 469 1111 469C1036 469 890 424 890 289ZM1075 435C1143 435 1189 379 1189 294C1189 229 1147 184 1086 184C1019 184 974 236 974 313C974 390 1011 435 1075 435ZM1122 -14C1235 -14 1274 -37 1274 -102C1274 -188 1195 -252 1090 -252C1003 -252 943 -201 943 -127C943 -82 969 -41 1009 -24C1025 -16 1053 -14 1122 -14Z" stroke="rgb(0, 0, 0)" stroke-width="8" fill="rgb(0, 0, 0)" style="transform:matrix(0.017,0,0,-0.017,0,0);"></path></g></g><g style="transform:matrix(1,0,0,1,50.70001220703125,284.79998779296875);"><path d="M209 656L209 648C211 643 213 639 218 637C235 642 266 653 282 653C334 653 343 500 347 460C219 320 120 161 25 -2L35 -16C60 -5 85 4 111 13C154 159 261 308 353 428C361 365 384 13 401 -6C456 -42 528 44 570 74L570 87L558 87L558 88C541 77 512 55 491 55C452 55 444 188 439 219C424 326 399 672 383 689C347 728 251 667 209 656Z" stroke="rgb(0, 0, 0)" stroke-width="8" fill="rgb(0, 0, 0)" style="transform:matrix(0.017,0,0,-0.017,0,0);"></path></g><g><g><g><g style="transform:matrix(1,0,0,1,62.70001220703125,277.9);"><path d="M462 224C462 345 355 366 308 374C388 436 418 482 418 541C418 630 344 689 233 689C165 689 120 670 72 622L43 498L74 498L92 554C103 588 166 622 218 622C283 622 336 569 336 506C336 431 277 368 206 368C198 368 187 369 174 370L159 371L147 318L154 312C192 329 211 334 238 334C321 334 369 281 369 190C369 88 308 21 215 21C169 21 128 36 98 64C74 86 61 109 42 163L15 153C36 92 44 56 50 6C103 -12 147 -20 184 -20C307 -20 462 87 462 224Z" stroke="rgb(0, 0, 0)" stroke-width="8" fill="rgb(0, 0, 0)" style="transform:matrix(0.0119,0,0,-0.0119,0,0);"></path></g></g></g></g></g></g><g><g><g><g style="transform:matrix(1,0,0,1,23.29998779296875,244.79998779296875);"><path d="M23 661L79 661C97 661 104 650 104 620L104 102C104 39 101 32 67 30L21 27L21 -3C121 0 121 0 146 0C171 0 171 0 271 -3L271 27L225 30C191 32 188 39 188 102L188 718L179 726C135 709 102 701 23 689ZM569 469C423 469 322 366 322 217C322 76 411 -20 540 -20C694 -20 804 87 804 237C804 372 706 469 569 469ZM551 436C643 436 711 336 711 200C711 85 660 13 579 13C481 13 415 109 415 251C415 371 463 436 551 436ZM890 289C890 215 936 164 1010 156L931 95C921 80 916 67 916 52C916 24 934 8 982 -6L895 -53C881 -61 867 -98 867 -129C867 -220 956 -283 1083 -283C1234 -283 1353 -188 1353 -66C1353 6 1305 56 1235 56L1075 56C1023 56 999 68 999 95C999 118 1028 135 1045 152C1055 151 1061 150 1069 150C1130 150 1273 197 1273 324C1273 344 1270 357 1262 378L1354 378L1379 419L1375 431L1233 427C1196 457 1160 469 1111 469C1036 469 890 424 890 289ZM1075 435C1143 435 1189 379 1189 294C1189 229 1147 184 1086 184C1019 184 974 236 974 313C974 390 1011 435 1075 435ZM1122 -14C1235 -14 1274 -37 1274 -102C1274 -188 1195 -252 1090 -252C1003 -252 943 -201 943 -127C943 -82 969 -41 1009 -24C1025 -16 1053 -14 1122 -14Z" stroke="rgb(0, 0, 0)" stroke-width="8" fill="rgb(0, 0, 0)" style="transform:matrix(0.017,0,0,-0.017,0,0);"></path></g></g><g style="transform:matrix(1,0,0,1,49.70001220703125,244.79998779296875);"><path d="M209 656L209 648C211 643 213 639 218 637C235 642 266 653 282 653C334 653 343 500 347 460C219 320 120 161 25 -2L35 -16C60 -5 85 4 111 13C154 159 261 308 353 428C361 365 384 13 401 -6C456 -42 528 44 570 74L570 87L558 87L558 88C541 77 512 55 491 55C452 55 444 188 439 219C424 326 399 672 383 689C347 728 251 667 209 656Z" stroke="rgb(0, 0, 0)" stroke-width="8" fill="rgb(0, 0, 0)" style="transform:matrix(0.017,0,0,-0.017,0,0);"></path></g><g><g><g><g style="transform:matrix(1,0,0,1,61.70001220703125,237.9);"><path d="M280 181L280 106C280 46 269 32 220 30L158 27L158 -3C291 0 291 0 315 0C339 0 339 0 472 -3L472 27L424 30C375 33 364 46 364 106L364 181C423 181 444 180 472 177L472 248L364 245L365 697L285 667L2 204L2 181ZM280 245L65 245L280 597Z" stroke="rgb(0, 0, 0)" stroke-width="8" fill="rgb(0, 0, 0)" style="transform:matrix(0.0119,0,0,-0.0119,0,0);"></path></g></g></g></g></g></g><g><g><g><g style="transform:matrix(1,0,0,1,23.29998779296875,204.79998779296875);"><path d="M23 661L79 661C97 661 104 650 104 620L104 102C104 39 101 32 67 30L21 27L21 -3C121 0 121 0 146 0C171 0 171 0 271 -3L271 27L225 30C191 32 188 39 188 102L188 718L179 726C135 709 102 701 23 689ZM569 469C423 469 322 366 322 217C322 76 411 -20 540 -20C694 -20 804 87 804 237C804 372 706 469 569 469ZM551 436C643 436 711 336 711 200C711 85 660 13 579 13C481 13 415 109 415 251C415 371 463 436 551 436ZM890 289C890 215 936 164 1010 156L931 95C921 80 916 67 916 52C916 24 934 8 982 -6L895 -53C881 -61 867 -98 867 -129C867 -220 956 -283 1083 -283C1234 -283 1353 -188 1353 -66C1353 6 1305 56 1235 56L1075 56C1023 56 999 68 999 95C999 118 1028 135 1045 152C1055 151 1061 150 1069 150C1130 150 1273 197 1273 324C1273 344 1270 357 1262 378L1354 378L1379 419L1375 431L1233 427C1196 457 1160 469 1111 469C1036 469 890 424 890 289ZM1075 435C1143 435 1189 379 1189 294C1189 229 1147 184 1086 184C1019 184 974 236 974 313C974 390 1011 435 1075 435ZM1122 -14C1235 -14 1274 -37 1274 -102C1274 -188 1195 -252 1090 -252C1003 -252 943 -201 943 -127C943 -82 969 -41 1009 -24C1025 -16 1053 -14 1122 -14Z" stroke="rgb(0, 0, 0)" stroke-width="8" fill="rgb(0, 0, 0)" style="transform:matrix(0.017,0,0,-0.017,0,0);"></path></g></g><g style="transform:matrix(1,0,0,1,49.70001220703125,204.79998779296875);"><path d="M209 656L209 648C211 643 213 639 218 637C235 642 266 653 282 653C334 653 343 500 347 460C219 320 120 161 25 -2L35 -16C60 -5 85 4 111 13C154 159 261 308 353 428C361 365 384 13 401 -6C456 -42 528 44 570 74L570 87L558 87L558 88C541 77 512 55 491 55C452 55 444 188 439 219C424 326 399 672 383 689C347 728 251 667 209 656Z" stroke="rgb(0, 0, 0)" stroke-width="8" fill="rgb(0, 0, 0)" style="transform:matrix(0.017,0,0,-0.017,0,0);"></path></g><g><g><g><g style="transform:matrix(1,0,0,1,61.70001220703125,197.9);"><path d="M459 253C459 366 378 446 264 446C216 446 180 443 127 396L127 605L432 604L432 689L75 690L75 322L95 316C142 363 169 377 218 377C314 377 374 309 374 201C374 90 310 25 201 25C147 25 97 43 83 69L37 151L13 137C36 80 48 48 62 4C90 -11 130 -20 173 -20C301 -20 459 89 459 253Z" stroke="rgb(0, 0, 0)" stroke-width="8" fill="rgb(0, 0, 0)" style="transform:matrix(0.0119,0,0,-0.0119,0,0);"></path></g></g></g></g></g></g><g><g><g><g style="transform:matrix(1,0,0,1,23.29998779296875,165.79998779296875);"><path d="M23 661L79 661C97 661 104 650 104 620L104 102C104 39 101 32 67 30L21 27L21 -3C121 0 121 0 146 0C171 0 171 0 271 -3L271 27L225 30C191 32 188 39 188 102L188 718L179 726C135 709 102 701 23 689ZM569 469C423 469 322 366 322 217C322 76 411 -20 540 -20C694 -20 804 87 804 237C804 372 706 469 569 469ZM551 436C643 436 711 336 711 200C711 85 660 13 579 13C481 13 415 109 415 251C415 371 463 436 551 436ZM890 289C890 215 936 164 1010 156L931 95C921 80 916 67 916 52C916 24 934 8 982 -6L895 -53C881 -61 867 -98 867 -129C867 -220 956 -283 1083 -283C1234 -283 1353 -188 1353 -66C1353 6 1305 56 1235 56L1075 56C1023 56 999 68 999 95C999 118 1028 135 1045 152C1055 151 1061 150 1069 150C1130 150 1273 197 1273 324C1273 344 1270 357 1262 378L1354 378L1379 419L1375 431L1233 427C1196 457 1160 469 1111 469C1036 469 890 424 890 289ZM1075 435C1143 435 1189 379 1189 294C1189 229 1147 184 1086 184C1019 184 974 236 974 313C974 390 1011 435 1075 435ZM1122 -14C1235 -14 1274 -37 1274 -102C1274 -188 1195 -252 1090 -252C1003 -252 943 -201 943 -127C943 -82 969 -41 1009 -24C1025 -16 1053 -14 1122 -14Z" stroke="rgb(0, 0, 0)" stroke-width="8" fill="rgb(0, 0, 0)" style="transform:matrix(0.017,0,0,-0.017,0,0);"></path></g></g><g style="transform:matrix(1,0,0,1,49.70001220703125,165.79998779296875);"><path d="M209 656L209 648C211 643 213 639 218 637C235 642 266 653 282 653C334 653 343 500 347 460C219 320 120 161 25 -2L35 -16C60 -5 85 4 111 13C154 159 261 308 353 428C361 365 384 13 401 -6C456 -42 528 44 570 74L570 87L558 87L558 88C541 77 512 55 491 55C452 55 444 188 439 219C424 326 399 672 383 689C347 728 251 667 209 656Z" stroke="rgb(0, 0, 0)" stroke-width="8" fill="rgb(0, 0, 0)" style="transform:matrix(0.017,0,0,-0.017,0,0);"></path></g><g><g><g><g style="transform:matrix(1,0,0,1,61.70001220703125,158.9);"><path d="M131 331C152 512 241 611 421 665L379 689C283 657 242 637 191 593C88 506 32 384 32 247C32 82 112 -20 241 -20C371 -20 468 83 468 219C468 334 399 409 293 409C216 409 184 370 131 331ZM255 349C331 349 382 283 382 184C382 80 331 13 254 13C169 13 123 86 123 220C123 255 127 274 138 291C160 325 207 349 255 349Z" stroke="rgb(0, 0, 0)" stroke-width="8" fill="rgb(0, 0, 0)" style="transform:matrix(0.0119,0,0,-0.0119,0,0);"></path></g></g></g></g></g></g><g><g><g><g style="transform:matrix(1,0,0,1,24.29998779296875,125.79998779296875);"><path d="M23 661L79 661C97 661 104 650 104 620L104 102C104 39 101 32 67 30L21 27L21 -3C121 0 121 0 146 0C171 0 171 0 271 -3L271 27L225 30C191 32 188 39 188 102L188 718L179 726C135 709 102 701 23 689ZM569 469C423 469 322 366 322 217C322 76 411 -20 540 -20C694 -20 804 87 804 237C804 372 706 469 569 469ZM551 436C643 436 711 336 711 200C711 85 660 13 579 13C481 13 415 109 415 251C415 371 463 436 551 436ZM890 289C890 215 936 164 1010 156L931 95C921 80 916 67 916 52C916 24 934 8 982 -6L895 -53C881 -61 867 -98 867 -129C867 -220 956 -283 1083 -283C1234 -283 1353 -188 1353 -66C1353 6 1305 56 1235 56L1075 56C1023 56 999 68 999 95C999 118 1028 135 1045 152C1055 151 1061 150 1069 150C1130 150 1273 197 1273 324C1273 344 1270 357 1262 378L1354 378L1379 419L1375 431L1233 427C1196 457 1160 469 1111 469C1036 469 890 424 890 289ZM1075 435C1143 435 1189 379 1189 294C1189 229 1147 184 1086 184C1019 184 974 236 974 313C974 390 1011 435 1075 435ZM1122 -14C1235 -14 1274 -37 1274 -102C1274 -188 1195 -252 1090 -252C1003 -252 943 -201 943 -127C943 -82 969 -41 1009 -24C1025 -16 1053 -14 1122 -14Z" stroke="rgb(0, 0, 0)" stroke-width="8" fill="rgb(0, 0, 0)" style="transform:matrix(0.017,0,0,-0.017,0,0);"></path></g></g><g style="transform:matrix(1,0,0,1,50.70001220703125,125.79998779296875);"><path d="M209 656L209 648C211 643 213 639 218 637C235 642 266 653 282 653C334 653 343 500 347 460C219 320 120 161 25 -2L35 -16C60 -5 85 4 111 13C154 159 261 308 353 428C361 365 384 13 401 -6C456 -42 528 44 570 74L570 87L558 87L558 88C541 77 512 55 491 55C452 55 444 188 439 219C424 326 399 672 383 689C347 728 251 667 209 656Z" stroke="rgb(0, 0, 0)" stroke-width="8" fill="rgb(0, 0, 0)" style="transform:matrix(0.017,0,0,-0.017,0,0);"></path></g><g><g><g><g style="transform:matrix(1,0,0,1,62.70001220703125,118.9);"><path d="M409 603L47 -1L157 -1L497 659L497 689L44 689L44 477L74 477L81 533C89 595 96 603 142 603Z" stroke="rgb(0, 0, 0)" stroke-width="8" fill="rgb(0, 0, 0)" style="transform:matrix(0.0119,0,0,-0.0119,0,0);"></path></g></g></g></g></g></g><g><g><g style="transform:matrix(1,0,0,1,85.73333740234375,416.01666259765625);"><path d="M567 55C567 39 552 30 524 28L480 25L480 -3C582 0 582 0 602 0C622 0 622 0 724 -3L724 25L698 28C651 35 650 35 642 80L555 705L509 705L136 112C100 56 82 40 48 32L28 27L28 -3C120 0 120 0 140 0C159 0 161 0 247 -3L247 25L195 28C179 29 164 38 164 47C164 55 171 69 190 102L292 277L538 277L563 89L563 86C563 84 567 69 567 55ZM496 601L533 313L317 313Z" stroke="rgb(0, 0, 0)" stroke-width="8" fill="rgb(0, 0, 0)" style="transform:matrix(0.017,0,0,-0.017,0,0);"></path></g><g><g><g><g style="transform:matrix(1,0,0,1,99.25,418.8166870117187);"><path d="M263 689C108 689 29 566 29 324C29 207 50 106 85 57C120 8 176 -20 238 -20C389 -20 465 110 465 366C465 585 400 689 263 689ZM245 654C342 654 381 556 381 316C381 103 343 15 251 15C154 15 113 116 113 360C113 571 150 654 245 654Z" stroke="rgb(0, 0, 0)" stroke-width="8" fill="rgb(0, 0, 0)" style="transform:matrix(0.0119,0,0,-0.0119,0,0);"></path></g></g></g></g></g></g><g><g><g style="transform:matrix(1,0,0,1,398.7333984375,419.01666259765625);"><path d="M567 55C567 39 552 30 524 28L480 25L480 -3C582 0 582 0 602 0C622 0 622 0 724 -3L724 25L698 28C651 35 650 35 642 80L555 705L509 705L136 112C100 56 82 40 48 32L28 27L28 -3C120 0 120 0 140 0C159 0 161 0 247 -3L247 25L195 28C179 29 164 38 164 47C164 55 171 69 190 102L292 277L538 277L563 89L563 86C563 84 567 69 567 55ZM496 601L533 313L317 313Z" stroke="rgb(0, 0, 0)" stroke-width="8" fill="rgb(0, 0, 0)" style="transform:matrix(0.017,0,0,-0.017,0,0);"></path></g><g><g><g><g style="transform:matrix(1,0,0,1,412.25,421.8166870117187);"><path d="M418 -3L418 27L366 30C311 33 301 44 301 96L301 700L60 598L67 548L217 614L217 96C217 44 206 33 152 30L96 27L96 -3C250 0 250 0 261 0C292 0 402 -3 418 -3Z" stroke="rgb(0, 0, 0)" stroke-width="8" fill="rgb(0, 0, 0)" style="transform:matrix(0.0119,0,0,-0.0119,0,0);"></path></g></g></g></g></g></g><g><g><g style="transform:matrix(1,0,0,1,87.23333740234375,380.01666259765625);"><path d="M543 227C543 337 459 353 377 365C434 385 459 397 490 425C536 464 559 511 559 562C559 644 501 692 401 692C399 692 389 692 374 691L311 690C299 689 263 689 251 689C232 689 201 690 152 691L100 692L97 664L150 662C174 661 185 653 185 635C185 621 181 589 176 559L89 55C85 37 73 30 31 23L26 -3L63 -2C90 0 105 0 117 0C128 0 154 -1 180 -2L217 -3L237 -4C256 -5 269 -6 277 -6C392 -6 543 87 543 227ZM166 41L217 340L302 340C405 340 455 298 455 211C455 108 382 34 282 34C228 34 207 38 166 41ZM352 655C433 655 473 619 473 544C473 439 399 376 275 376L223 376L272 650C288 650 329 655 352 655Z" stroke="rgb(0, 0, 0)" stroke-width="8" fill="rgb(0, 0, 0)" style="transform:matrix(0.017,0,0,-0.017,0,0);"></path></g><g><g><g><g style="transform:matrix(1,0,0,1,97.75,382.8166870117187);"><path d="M263 689C108 689 29 566 29 324C29 207 50 106 85 57C120 8 176 -20 238 -20C389 -20 465 110 465 366C465 585 400 689 263 689ZM245 654C342 654 381 556 381 316C381 103 343 15 251 15C154 15 113 116 113 360C113 571 150 654 245 654Z" stroke="rgb(0, 0, 0)" stroke-width="8" fill="rgb(0, 0, 0)" style="transform:matrix(0.0119,0,0,-0.0119,0,0);"></path></g></g></g></g></g></g><g><g><g style="transform:matrix(1,0,0,1,316.2333984375,377.01666259765625);"><path d="M543 227C543 337 459 353 377 365C434 385 459 397 490 425C536 464 559 511 559 562C559 644 501 692 401 692C399 692 389 692 374 691L311 690C299 689 263 689 251 689C232 689 201 690 152 691L100 692L97 664L150 662C174 661 185 653 185 635C185 621 181 589 176 559L89 55C85 37 73 30 31 23L26 -3L63 -2C90 0 105 0 117 0C128 0 154 -1 180 -2L217 -3L237 -4C256 -5 269 -6 277 -6C392 -6 543 87 543 227ZM166 41L217 340L302 340C405 340 455 298 455 211C455 108 382 34 282 34C228 34 207 38 166 41ZM352 655C433 655 473 619 473 544C473 439 399 376 275 376L223 376L272 650C288 650 329 655 352 655Z" stroke="rgb(0, 0, 0)" stroke-width="8" fill="rgb(0, 0, 0)" style="transform:matrix(0.017,0,0,-0.017,0,0);"></path></g><g><g><g><g style="transform:matrix(1,0,0,1,326.75,379.8166870117187);"><path d="M418 -3L418 27L366 30C311 33 301 44 301 96L301 700L60 598L67 548L217 614L217 96C217 44 206 33 152 30L96 27L96 -3C250 0 250 0 261 0C292 0 402 -3 418 -3Z" stroke="rgb(0, 0, 0)" stroke-width="8" fill="rgb(0, 0, 0)" style="transform:matrix(0.0119,0,0,-0.0119,0,0);"></path></g></g></g></g></g></g><g><g><g style="transform:matrix(1,0,0,1,88.23333740234375,343);"><path d="M45 284C45 90 152 -18 343 -18C439 -18 510 5 600 67L610 103L600 110C506 53 454 35 376 35C219 35 133 131 133 309C133 447 190 653 418 653C489 653 541 639 597 603L597 519L624 519C629 576 637 619 651 665C575 694 518 706 456 706C276 706 45 578 45 284Z" stroke="rgb(0, 0, 0)" stroke-width="8" fill="rgb(0, 0, 0)" style="transform:matrix(0.017,0,0,-0.017,0,0);"></path></g><g><g><g><g style="transform:matrix(1,0,0,1,100.75,345.8166870117187);"><path d="M263 689C108 689 29 566 29 324C29 207 50 106 85 57C120 8 176 -20 238 -20C389 -20 465 110 465 366C465 585 400 689 263 689ZM245 654C342 654 381 556 381 316C381 103 343 15 251 15C154 15 113 116 113 360C113 571 150 654 245 654Z" stroke="rgb(0, 0, 0)" stroke-width="8" fill="rgb(0, 0, 0)" style="transform:matrix(0.0119,0,0,-0.0119,0,0);"></path></g></g></g></g></g></g><g><g><g style="transform:matrix(1,0,0,1,370.2333984375,343);"><path d="M45 284C45 90 152 -18 343 -18C439 -18 510 5 600 67L610 103L600 110C506 53 454 35 376 35C219 35 133 131 133 309C133 447 190 653 418 653C489 653 541 639 597 603L597 519L624 519C629 576 637 619 651 665C575 694 518 706 456 706C276 706 45 578 45 284Z" stroke="rgb(0, 0, 0)" stroke-width="8" fill="rgb(0, 0, 0)" style="transform:matrix(0.017,0,0,-0.017,0,0);"></path></g><g><g><g><g style="transform:matrix(1,0,0,1,382.75,345.8166870117187);"><path d="M418 -3L418 27L366 30C311 33 301 44 301 96L301 700L60 598L67 548L217 614L217 96C217 44 206 33 152 30L96 27L96 -3C250 0 250 0 261 0C292 0 402 -3 418 -3Z" stroke="rgb(0, 0, 0)" stroke-width="8" fill="rgb(0, 0, 0)" style="transform:matrix(0.0119,0,0,-0.0119,0,0);"></path></g></g></g></g></g></g><g><g><g style="transform:matrix(1,0,0,1,45,95);"><path d="M124 674C94 674 67 646 67 616C67 586 94 558 123 558C155 558 183 585 183 616C183 646 155 674 124 674ZM124 329C94 329 67 301 67 271C67 241 94 213 123 213C155 213 183 240 183 271C183 301 155 329 124 329ZM124 -26C94 -26 67 -54 67 -84C67 -114 94 -142 123 -142C155 -142 183 -115 183 -84C183 -54 155 -26 124 -26Z" stroke="rgb(0, 0, 0)" stroke-width="8" fill="rgb(0, 0, 0)" style="transform:matrix(0.017,0,0,-0.017,0,0);"></path></g></g></g><g><g><g style="transform:matrix(1,0,0,1,88.23333740234375,260.01666259765625);"><path d="M221 334L338 334L470 330L489 375L485 382C404 378 344 376 266 376L229 376L276 646C308 647 391 650 413 650C475 650 516 641 517 626L525 537L549 537C552 601 559 651 570 689C549 691 519 692 501 692C498 692 487 692 463 691L343 690C334 689 160 691 150 691L105 692L102 664L156 662C180 661 191 653 191 635C191 621 187 589 182 559L95 55C91 37 79 30 35 23L30 -3L71 -2C102 -1 164 0 184 0L409 -3C423 -3 448 -2 481 -1L514 0L518 36C520 56 525 86 534 135L539 161L512 161L496 101C486 65 477 53 455 48C435 44 362 39 308 39C267 39 240 40 171 46Z" stroke="rgb(0, 0, 0)" stroke-width="8" fill="rgb(0, 0, 0)" style="transform:matrix(0.017,0,0,-0.017,0,0);"></path></g><g><g><g><g style="transform:matrix(1,0,0,1,98.75,262.8166870117187);"><path d="M263 689C108 689 29 566 29 324C29 207 50 106 85 57C120 8 176 -20 238 -20C389 -20 465 110 465 366C465 585 400 689 263 689ZM245 654C342 654 381 556 381 316C381 103 343 15 251 15C154 15 113 116 113 360C113 571 150 654 245 654Z" stroke="rgb(0, 0, 0)" stroke-width="8" fill="rgb(0, 0, 0)" style="transform:matrix(0.0119,0,0,-0.0119,0,0);"></path></g></g></g></g></g></g><g><g><g style="transform:matrix(1,0,0,1,291.2333984375,257.01666259765625);"><path d="M221 334L338 334L470 330L489 375L485 382C404 378 344 376 266 376L229 376L276 646C308 647 391 650 413 650C475 650 516 641 517 626L525 537L549 537C552 601 559 651 570 689C549 691 519 692 501 692C498 692 487 692 463 691L343 690C334 689 160 691 150 691L105 692L102 664L156 662C180 661 191 653 191 635C191 621 187 589 182 559L95 55C91 37 79 30 35 23L30 -3L71 -2C102 -1 164 0 184 0L409 -3C423 -3 448 -2 481 -1L514 0L518 36C520 56 525 86 534 135L539 161L512 161L496 101C486 65 477 53 455 48C435 44 362 39 308 39C267 39 240 40 171 46Z" stroke="rgb(0, 0, 0)" stroke-width="8" fill="rgb(0, 0, 0)" style="transform:matrix(0.017,0,0,-0.017,0,0);"></path></g><g><g><g><g style="transform:matrix(1,0,0,1,301.75,259.8166870117187);"><path d="M418 -3L418 27L366 30C311 33 301 44 301 96L301 700L60 598L67 548L217 614L217 96C217 44 206 33 152 30L96 27L96 -3C250 0 250 0 261 0C292 0 402 -3 418 -3Z" stroke="rgb(0, 0, 0)" stroke-width="8" fill="rgb(0, 0, 0)" style="transform:matrix(0.0119,0,0,-0.0119,0,0);"></path></g></g></g></g></g></g><g><g><g style="transform:matrix(1,0,0,1,85.73333740234375,299.01666259765625);"><path d="M316 -3C388 -3 437 8 489 34C645 114 741 265 741 431C741 529 711 599 650 642C604 675 519 693 424 692L220 689L210 689C201 689 198 689 97 692L94 664L147 662C171 661 182 653 182 635C182 621 178 589 173 559L86 55C81 31 56 29 33 23L28 -3L121 0L176 0C211 0 282 -3 316 -3ZM384 655C566 655 649 579 649 415C649 225 549 41 329 41C285 41 236 46 168 56C168 68 169 75 172 93L268 650C291 650 349 655 384 655Z" stroke="rgb(0, 0, 0)" stroke-width="8" fill="rgb(0, 0, 0)" style="transform:matrix(0.017,0,0,-0.017,0,0);"></path></g><g><g><g><g style="transform:matrix(1,0,0,1,99.25,301.8166870117187);"><path d="M263 689C108 689 29 566 29 324C29 207 50 106 85 57C120 8 176 -20 238 -20C389 -20 465 110 465 366C465 585 400 689 263 689ZM245 654C342 654 381 556 381 316C381 103 343 15 251 15C154 15 113 116 113 360C113 571 150 654 245 654Z" stroke="rgb(0, 0, 0)" stroke-width="8" fill="rgb(0, 0, 0)" style="transform:matrix(0.0119,0,0,-0.0119,0,0);"></path></g></g></g></g></g></g><g><g><g style="transform:matrix(1,0,0,1,246.73333740234375,296.01666259765625);"><path d="M316 -3C388 -3 437 8 489 34C645 114 741 265 741 431C741 529 711 599 650 642C604 675 519 693 424 692L220 689L210 689C201 689 198 689 97 692L94 664L147 662C171 661 182 653 182 635C182 621 178 589 173 559L86 55C81 31 56 29 33 23L28 -3L121 0L176 0C211 0 282 -3 316 -3ZM384 655C566 655 649 579 649 415C649 225 549 41 329 41C285 41 236 46 168 56C168 68 169 75 172 93L268 650C291 650 349 655 384 655Z" stroke="rgb(0, 0, 0)" stroke-width="8" fill="rgb(0, 0, 0)" style="transform:matrix(0.017,0,0,-0.017,0,0);"></path></g><g><g><g><g style="transform:matrix(1,0,0,1,260.25,298.8166870117187);"><path d="M418 -3L418 27L366 30C311 33 301 44 301 96L301 700L60 598L67 548L217 614L217 96C217 44 206 33 152 30L96 27L96 -3C250 0 250 0 261 0C292 0 402 -3 418 -3Z" stroke="rgb(0, 0, 0)" stroke-width="8" fill="rgb(0, 0, 0)" style="transform:matrix(0.0119,0,0,-0.0119,0,0);"></path></g></g></g></g></g></g><g><g><g style="transform:matrix(1,0,0,1,87.73333740234375,220.01666259765625);"><path d="M286 646L392 650C454 650 494 641 495 626L503 537L527 537C530 600 537 651 548 689C526 691 498 692 481 692L440 691L275 689L246 689C221 689 181 690 143 691L94 692L91 664L147 662C171 661 182 652 182 635C182 621 178 589 173 559L98 125C81 33 81 32 40 28L4 25L0 -3L34 -2C74 -1 106 0 127 0C145 0 174 -1 213 -2L265 -3L268 25L204 28C177 29 168 37 168 57C168 63 169 74 170 78L206 301L323 301C350 301 381 300 429 298L455 297L474 342L470 349C389 345 329 343 251 343L214 343L260 614C263 630 264 635 269 646Z" stroke="rgb(0, 0, 0)" stroke-width="8" fill="rgb(0, 0, 0)" style="transform:matrix(0.017,0,0,-0.017,0,0);"></path></g><g><g><g><g style="transform:matrix(1,0,0,1,97.25,222.81668701171876);"><path d="M263 689C108 689 29 566 29 324C29 207 50 106 85 57C120 8 176 -20 238 -20C389 -20 465 110 465 366C465 585 400 689 263 689ZM245 654C342 654 381 556 381 316C381 103 343 15 251 15C154 15 113 116 113 360C113 571 150 654 245 654Z" stroke="rgb(0, 0, 0)" stroke-width="8" fill="rgb(0, 0, 0)" style="transform:matrix(0.0119,0,0,-0.0119,0,0);"></path></g></g></g></g></g></g><g><g><g style="transform:matrix(1,0,0,1,171.73333740234375,217.01666259765625);"><path d="M286 646L392 650C454 650 494 641 495 626L503 537L527 537C530 600 537 651 548 689C526 691 498 692 481 692L440 691L275 689L246 689C221 689 181 690 143 691L94 692L91 664L147 662C171 661 182 652 182 635C182 621 178 589 173 559L98 125C81 33 81 32 40 28L4 25L0 -3L34 -2C74 -1 106 0 127 0C145 0 174 -1 213 -2L265 -3L268 25L204 28C177 29 168 37 168 57C168 63 169 74 170 78L206 301L323 301C350 301 381 300 429 298L455 297L474 342L470 349C389 345 329 343 251 343L214 343L260 614C263 630 264 635 269 646Z" stroke="rgb(0, 0, 0)" stroke-width="8" fill="rgb(0, 0, 0)" style="transform:matrix(0.017,0,0,-0.017,0,0);"></path></g><g><g><g><g style="transform:matrix(1,0,0,1,181.25,219.81668701171876);"><path d="M418 -3L418 27L366 30C311 33 301 44 301 96L301 700L60 598L67 548L217 614L217 96C217 44 206 33 152 30L96 27L96 -3C250 0 250 0 261 0C292 0 402 -3 418 -3Z" stroke="rgb(0, 0, 0)" stroke-width="8" fill="rgb(0, 0, 0)" style="transform:matrix(0.0119,0,0,-0.0119,0,0);"></path></g></g></g></g></g></g><g><g><g style="transform:matrix(1,0,0,1,86.23333740234375,181.01666259765625);"><path d="M434 653C511 653 565 639 621 603L621 519L648 519C653 576 661 619 675 665C592 695 535 706 466 706C374 706 301 683 229 632C112 548 50 424 50 274C50 87 159 -18 355 -18C412 -21 559 6 608 37C628 193 632 216 633 219C635 228 647 238 660 240L692 246L694 274C655 270 620 269 569 269C518 269 482 270 440 274L435 246L469 244C544 240 553 236 553 212C553 197 533 84 528 60C483 36 444 27 390 27C224 27 138 120 138 297C138 443 197 653 434 653Z" stroke="rgb(0, 0, 0)" stroke-width="8" fill="rgb(0, 0, 0)" style="transform:matrix(0.017,0,0,-0.017,0,0);"></path></g><g><g><g><g style="transform:matrix(1,0,0,1,98.75,183.81668701171876);"><path d="M263 689C108 689 29 566 29 324C29 207 50 106 85 57C120 8 176 -20 238 -20C389 -20 465 110 465 366C465 585 400 689 263 689ZM245 654C342 654 381 556 381 316C381 103 343 15 251 15C154 15 113 116 113 360C113 571 150 654 245 654Z" stroke="rgb(0, 0, 0)" stroke-width="8" fill="rgb(0, 0, 0)" style="transform:matrix(0.0119,0,0,-0.0119,0,0);"></path></g></g></g></g></g></g><g><g><g style="transform:matrix(1,0,0,1,486.2333984375,178.01666259765625);"><path d="M434 653C511 653 565 639 621 603L621 519L648 519C653 576 661 619 675 665C592 695 535 706 466 706C374 706 301 683 229 632C112 548 50 424 50 274C50 87 159 -18 355 -18C412 -21 559 6 608 37C628 193 632 216 633 219C635 228 647 238 660 240L692 246L694 274C655 270 620 269 569 269C518 269 482 270 440 274L435 246L469 244C544 240 553 236 553 212C553 197 533 84 528 60C483 36 444 27 390 27C224 27 138 120 138 297C138 443 197 653 434 653Z" stroke="rgb(0, 0, 0)" stroke-width="8" fill="rgb(0, 0, 0)" style="transform:matrix(0.017,0,0,-0.017,0,0);"></path></g><g><g><g><g style="transform:matrix(1,0,0,1,498.75,180.81668701171876);"><path d="M418 -3L418 27L366 30C311 33 301 44 301 96L301 700L60 598L67 548L217 614L217 96C217 44 206 33 152 30L96 27L96 -3C250 0 250 0 261 0C292 0 402 -3 418 -3Z" stroke="rgb(0, 0, 0)" stroke-width="8" fill="rgb(0, 0, 0)" style="transform:matrix(0.0119,0,0,-0.0119,0,0);"></path></g></g></g></g></g></g><g><g><g style="transform:matrix(1,0,0,1,84.73333740234375,141.01666259765625);"><path d="M221 385L263 613C270 652 277 658 314 661L356 664L359 692L335 692L245 689C229 689 211 689 168 690L104 692L101 664L148 662C172 661 183 653 183 635C183 621 179 590 174 559L100 125C83 33 82 32 42 28L1 25L-3 -3L39 -2C87 -1 110 0 129 0L226 -3L252 -3L255 25L206 28C179 30 170 37 170 58C170 67 171 74 174 93L216 340L277 341C339 342 381 343 400 343C419 343 460 342 523 341L584 340L544 125C535 76 528 48 523 42C519 34 508 30 486 28L436 25L432 -3L488 -2C532 -1 562 0 573 0C589 0 620 -1 663 -2L705 -3L708 25L650 28C624 29 614 37 614 58C614 67 615 76 618 93L710 613C717 652 723 657 761 661L797 664L800 692L784 692L693 689C678 689 657 689 613 690L550 692L547 664L595 662C619 661 630 653 630 635C630 621 626 589 621 559L591 385Z" stroke="rgb(0, 0, 0)" stroke-width="8" fill="rgb(0, 0, 0)" style="transform:matrix(0.017,0,0,-0.017,0,0);"></path></g><g><g><g><g style="transform:matrix(1,0,0,1,98.25,143.81668701171876);"><path d="M263 689C108 689 29 566 29 324C29 207 50 106 85 57C120 8 176 -20 238 -20C389 -20 465 110 465 366C465 585 400 689 263 689ZM245 654C342 654 381 556 381 316C381 103 343 15 251 15C154 15 113 116 113 360C113 571 150 654 245 654Z" stroke="rgb(0, 0, 0)" stroke-width="8" fill="rgb(0, 0, 0)" style="transform:matrix(0.0119,0,0,-0.0119,0,0);"></path></g></g></g></g></g></g><g><g><g style="transform:matrix(1,0,0,1,273.73333740234375,138.01666259765625);"><path d="M221 385L263 613C270 652 277 658 314 661L356 664L359 692L335 692L245 689C229 689 211 689 168 690L104 692L101 664L148 662C172 661 183 653 183 635C183 621 179 590 174 559L100 125C83 33 82 32 42 28L1 25L-3 -3L39 -2C87 -1 110 0 129 0L226 -3L252 -3L255 25L206 28C179 30 170 37 170 58C170 67 171 74 174 93L216 340L277 341C339 342 381 343 400 343C419 343 460 342 523 341L584 340L544 125C535 76 528 48 523 42C519 34 508 30 486 28L436 25L432 -3L488 -2C532 -1 562 0 573 0C589 0 620 -1 663 -2L705 -3L708 25L650 28C624 29 614 37 614 58C614 67 615 76 618 93L710 613C717 652 723 657 761 661L797 664L800 692L784 692L693 689C678 689 657 689 613 690L550 692L547 664L595 662C619 661 630 653 630 635C630 621 626 589 621 559L591 385Z" stroke="rgb(0, 0, 0)" stroke-width="8" fill="rgb(0, 0, 0)" style="transform:matrix(0.017,0,0,-0.017,0,0);"></path></g><g><g><g><g style="transform:matrix(1,0,0,1,287.25,140.81668701171876);"><path d="M418 -3L418 27L366 30C311 33 301 44 301 96L301 700L60 598L67 548L217 614L217 96C217 44 206 33 152 30L96 27L96 -3C250 0 250 0 261 0C292 0 402 -3 418 -3Z" stroke="rgb(0, 0, 0)" stroke-width="8" fill="rgb(0, 0, 0)" style="transform:matrix(0.0119,0,0,-0.0119,0,0);"></path></g></g></g></g></g></g><g><g><g style="transform:matrix(1,0,0,1,166,92.9833);"><path d="M124 674C94 674 67 646 67 616C67 586 94 558 123 558C155 558 183 585 183 616C183 646 155 674 124 674ZM124 329C94 329 67 301 67 271C67 241 94 213 123 213C155 213 183 240 183 271C183 301 155 329 124 329ZM124 -26C94 -26 67 -54 67 -84C67 -114 94 -142 123 -142C155 -142 183 -115 183 -84C183 -54 155 -26 124 -26Z" stroke="rgb(0, 0, 0)" stroke-width="8" fill="rgb(0, 0, 0)" style="transform:matrix(0.0244833,0,0,-0.0244833,0,0);"></path></g></g></g></svg>
</svg>
